<svg width="124" height="20" viewBox="0 0 124 20" fill="none" xmlns="http://www.w3.org/2000/svg">
<path d="M0 2C0 0.895431 0.895431 0 2 0H94.5641C95.3571 0 96 0.642873 96 1.4359V18.5641C96 19.3571 95.3571 20 94.5641 20H2C0.895429 20 0 19.1046 0 18V2Z" fill="#5C5C5C"/>
<path d="M80 0H122C123.105 0 124 0.895431 124 2V18C124 19.1046 123.105 20 122 20H80V0Z" fill="#0D53DE"/>
<path fill-rule="evenodd" clip-rule="evenodd" d="M21.9505 5.20342L21.4078 4.66125L21.9524 4.11542L21.406 3.57325L20.8615 4.11542L20.317 3.57143L19.7706 4.11542L20.317 4.66125L19.7706 5.20525L20.3188 5.74924L20.7299 5.33851L20.8615 5.20525L21.406 5.74924L21.9505 5.20342ZM18.1438 5.76559L18.6864 6.30776L18.1401 6.85358L17.5974 6.30958L17.0529 6.85358L16.5066 6.30958L17.0529 5.76559L16.5066 5.22159L17.0529 4.67576L17.5974 5.22159L18.1401 4.67576L18.6883 5.22159L18.1438 5.76559ZM18.6781 7.38949L18.1317 7.93349L17.5872 8.47932L17.0427 9.02149V9.02331L15.4112 10.6533L19.7608 14.9978H15.4192L13.2407 12.8217L11.0603 15H6.71883L11.0702 10.6538L6.71429 6.30294L11.0649 6.31206L13.241 8.48559L14.3274 7.40045L14.872 6.85462L15.961 5.76663L16.5073 6.31063L15.9628 6.85462L16.5055 7.39862L15.961 7.94262L16.5073 8.48844L17.0518 7.94445L16.5073 7.39862L17.0518 6.85462L17.5982 7.40045L18.1409 6.85462L18.6781 7.38949ZM19.2334 5.76476L18.6879 6.30975L19.2218 6.84311L19.7673 6.29812L19.2334 5.76476Z" fill="white"/>
<path d="M28.86 5.72C29.94 5.72 30.8 6.07 31.43 6.78C32.03 7.45 32.33 8.34 32.33 9.44C32.33 10.53 32.03 11.41 31.43 12.09C30.8 12.79 29.94 13.14 28.86 13.14C27.77 13.14 26.91 12.78 26.29 12.08C25.69 11.4 25.4 10.52 25.4 9.44C25.4 8.35 25.69 7.47 26.29 6.79C26.91 6.07 27.77 5.72 28.86 5.72ZM28.86 6.68C28.1 6.68 27.51 6.93 27.09 7.45C26.69 7.94 26.49 8.6 26.49 9.44C26.49 10.27 26.69 10.93 27.09 11.42C27.51 11.92 28.1 12.18 28.86 12.18C29.62 12.18 30.21 11.93 30.62 11.44C31.02 10.96 31.23 10.29 31.23 9.44C31.23 8.58 31.02 7.91 30.62 7.42C30.21 6.92 29.62 6.68 28.86 6.68ZM35.9244 7.69C36.6844 7.69 37.2744 7.96 37.7144 8.5C38.1144 9 38.3144 9.64 38.3144 10.44C38.3144 11.2 38.1144 11.83 37.7244 12.33C37.3044 12.87 36.7144 13.14 35.9744 13.14C35.3344 13.14 34.8144 12.84 34.3944 12.24V14.98H33.3344V7.83H34.3244V8.45C34.6844 7.94 35.2244 7.69 35.9244 7.69ZM35.7644 8.55C35.3044 8.55 34.9444 8.73 34.6944 9.1C34.4744 9.42 34.3644 9.85 34.3644 10.38V10.47C34.3644 11.02 34.4944 11.47 34.7744 11.81C35.0144 12.12 35.3344 12.28 35.7344 12.28C36.2544 12.28 36.6344 12.11 36.8844 11.77C37.1044 11.45 37.2244 11.01 37.2244 10.44C37.2244 9.87 37.1144 9.43 36.9144 9.11C36.6644 8.73 36.2844 8.55 35.7644 8.55ZM41.5009 7.69C42.3409 7.69 42.9909 7.97 43.4309 8.55C43.8309 9.07 44.0409 9.79 44.0509 10.71H40.1309C40.1709 11.21 40.3009 11.6 40.5409 11.87C40.7809 12.13 41.1109 12.27 41.5309 12.27C41.9009 12.27 42.2009 12.18 42.4309 12.01C42.6109 11.87 42.7609 11.64 42.9009 11.34H43.9609C43.8409 11.82 43.6109 12.23 43.2509 12.55C42.8009 12.94 42.2309 13.14 41.5409 13.14C40.7809 13.14 40.1709 12.9 39.7309 12.43C39.2509 11.93 39.0109 11.26 39.0109 10.41C39.0109 9.64 39.2309 9 39.6909 8.48C40.1309 7.95 40.7409 7.69 41.5009 7.69ZM41.5309 8.56C41.1309 8.56 40.8209 8.67 40.5809 8.91C40.3609 9.14 40.2109 9.47 40.1509 9.91H42.9409C42.8409 9.01 42.3709 8.56 41.5309 8.56ZM47.5755 7.69C48.8555 7.69 49.5055 8.39 49.5055 9.81V13H48.4455V9.9C48.4455 9.02 48.0355 8.58 47.2355 8.58C46.9355 8.58 46.6655 8.68 46.4455 8.9C46.2055 9.14 46.0555 9.47 46.0155 9.89V13H44.9555V7.83H46.0155V8.47C46.2155 8.21 46.4455 8.02 46.7055 7.89C46.9655 7.75 47.2555 7.69 47.5755 7.69ZM50.3372 5.86H51.6672L53.4072 8.44L55.1472 5.86H56.4772L54.0572 9.31L56.6472 13H55.3172L53.4072 10.17L51.4972 13H50.1672L52.7372 9.31L50.3372 5.86ZM57.3992 5.86H58.4792V12.07H62.4092V13H57.3992V5.86ZM65.5374 7.69C66.2974 7.69 66.8574 7.88 67.2174 8.26C67.5274 8.59 67.6874 9.07 67.6874 9.7V13H66.7074V12.27C66.5074 12.53 66.2574 12.74 65.9574 12.89C65.6174 13.05 65.2174 13.14 64.7574 13.14C64.2174 13.14 63.7974 13 63.4974 12.73C63.1674 12.46 63.0074 12.11 63.0074 11.68C63.0074 11.1 63.2374 10.65 63.6974 10.34C64.1174 10.04 64.7174 9.89 65.4774 9.87L66.6374 9.84V9.63C66.6374 8.91 66.2474 8.55 65.4674 8.55C65.1374 8.55 64.8674 8.61 64.6674 8.73C64.4274 8.87 64.2774 9.08 64.2174 9.37L63.1674 9.28C63.2774 8.72 63.5574 8.3 63.9974 8.04C64.3774 7.8 64.8974 7.69 65.5374 7.69ZM66.6374 10.61L65.5474 10.64C64.5774 10.66 64.0974 11 64.0974 11.64C64.0974 11.84 64.1774 12 64.3474 12.13C64.5074 12.26 64.7274 12.33 64.9974 12.33C65.4474 12.33 65.8274 12.19 66.1474 11.92C66.4674 11.65 66.6374 11.31 66.6374 10.91V10.61ZM68.9008 5.72H69.9608V8.6C70.3808 7.99 70.9008 7.69 71.5408 7.69C72.2808 7.69 72.8608 7.96 73.2908 8.5C73.6808 9 73.8808 9.63 73.8808 10.39C73.8808 11.18 73.6808 11.83 73.2808 12.33C72.8408 12.87 72.2508 13.14 71.4908 13.14C70.7808 13.14 70.2508 12.88 69.8908 12.38V13H68.9008V5.72ZM71.3008 8.55C70.9008 8.55 70.5808 8.7 70.3408 9.02C70.0608 9.36 69.9308 9.81 69.9308 10.37V10.46C69.9308 10.98 70.0408 11.4 70.2608 11.73C70.5108 12.09 70.8708 12.28 71.3308 12.28C71.8508 12.28 72.2308 12.09 72.4808 11.72C72.6808 11.4 72.7908 10.96 72.7908 10.39C72.7908 9.82 72.6808 9.38 72.4608 9.08C72.2108 8.72 71.8208 8.55 71.3008 8.55Z" fill="white"/>
<path d="M85.7 5.86H86.99L89.48 11.58H89.51L91.99 5.86H93.28V13H92.19V7.9H92.15L89.96 13H89.02L86.83 7.9H86.79V13H85.7V5.86ZM96.9644 7.69C97.7444 7.69 98.3744 7.95 98.8444 8.47C99.3044 8.98 99.5444 9.63 99.5444 10.42C99.5444 11.2 99.3144 11.85 98.8544 12.35C98.3744 12.87 97.7444 13.14 96.9644 13.14C96.1844 13.14 95.5544 12.87 95.0744 12.35C94.6144 11.85 94.3844 11.2 94.3844 10.42C94.3844 9.63 94.6144 8.98 95.0844 8.47C95.5544 7.95 96.1844 7.69 96.9644 7.69ZM96.9644 8.56C96.4744 8.56 96.0944 8.75 95.8244 9.14C95.5844 9.47 95.4744 9.9 95.4744 10.42C95.4744 10.94 95.5844 11.36 95.8244 11.69C96.0944 12.07 96.4744 12.27 96.9644 12.27C97.4544 12.27 97.8344 12.07 98.1144 11.69C98.3544 11.35 98.4744 10.93 98.4744 10.42C98.4744 9.9 98.3544 9.47 98.1144 9.14C97.8344 8.75 97.4544 8.56 96.9644 8.56ZM104.271 5.72H105.331V13H104.341V12.38C103.981 12.88 103.441 13.14 102.741 13.14C101.981 13.14 101.381 12.87 100.951 12.33C100.551 11.83 100.351 11.18 100.351 10.39C100.351 9.63 100.541 9 100.941 8.5C101.361 7.96 101.951 7.69 102.691 7.69C103.321 7.69 103.851 7.99 104.271 8.6V5.72ZM102.931 8.55C102.411 8.55 102.021 8.72 101.771 9.08C101.551 9.38 101.441 9.82 101.441 10.39C101.441 10.96 101.541 11.4 101.751 11.72C101.991 12.09 102.381 12.28 102.901 12.28C103.361 12.28 103.711 12.09 103.971 11.73C104.191 11.4 104.301 10.98 104.301 10.46V10.37C104.301 9.81 104.161 9.36 103.901 9.02C103.641 8.7 103.321 8.55 102.931 8.55ZM108.718 7.69C109.558 7.69 110.208 7.97 110.648 8.55C111.048 9.07 111.258 9.79 111.268 10.71H107.348C107.388 11.21 107.518 11.6 107.758 11.87C107.998 12.13 108.328 12.27 108.748 12.27C109.118 12.27 109.418 12.18 109.648 12.01C109.828 11.87 109.978 11.64 110.118 11.34H111.178C111.058 11.82 110.828 12.23 110.468 12.55C110.018 12.94 109.448 13.14 108.758 13.14C107.998 13.14 107.388 12.9 106.948 12.43C106.468 11.93 106.228 11.26 106.228 10.41C106.228 9.64 106.448 9 106.908 8.48C107.348 7.95 107.958 7.69 108.718 7.69ZM108.748 8.56C108.348 8.56 108.038 8.67 107.798 8.91C107.578 9.14 107.428 9.47 107.368 9.91H110.158C110.058 9.01 109.588 8.56 108.748 8.56ZM112.292 5.72H113.352V13H112.292V5.72ZM116.602 7.69C117.942 7.69 118.682 8.23 118.802 9.32H117.772C117.692 9.04 117.572 8.85 117.402 8.74C117.222 8.62 116.942 8.56 116.582 8.56C116.262 8.56 116.022 8.6 115.862 8.7C115.672 8.8 115.582 8.96 115.582 9.16C115.582 9.34 115.722 9.49 116.002 9.62C116.182 9.7 116.522 9.8 117.042 9.93C117.632 10.07 118.072 10.24 118.352 10.42C118.762 10.68 118.972 11.04 118.972 11.5C118.972 12.59 118.202 13.14 116.672 13.14C115.252 13.14 114.492 12.53 114.372 11.33H115.412C115.472 11.68 115.602 11.93 115.782 12.07C115.962 12.2 116.242 12.27 116.642 12.27C117.462 12.27 117.882 12.03 117.882 11.57C117.882 11.32 117.722 11.12 117.422 10.98C117.262 10.9 116.912 10.8 116.382 10.68C115.772 10.54 115.342 10.39 115.102 10.23C114.702 9.98 114.502 9.63 114.502 9.19C114.502 8.72 114.692 8.35 115.082 8.09C115.472 7.82 115.982 7.69 116.602 7.69Z" fill="white"/>
</svg>
